<svg width="235" height="508" viewBox="0 0 235 508" fill="none" xmlns="http://www.w3.org/2000/svg">
<path d="M181.974 495.306C167.903 499.693 125.498 514.884 56.7945 504.355C54.6111 485.983 63.3445 425.053 63.3445 397.413C63.3445 369.773 56.7945 314.053 56.7945 294.585L56.7665 294.543C53.6077 289.874 48.0094 281.599 30.594 285.536C13.316 289.442 10.2806 305.475 8.80811 313.253L8.76033 313.505C8.51773 308.569 -0.555369 292.281 0.026862 273.196C0.754651 249.34 0.0268301 244.404 17.4938 218.903C31.1148 199.016 62.4393 183.246 76.8187 180.432C75.2487 180.344 94.5636 173.332 98.2784 183.53C103.373 197.514 125.934 206.563 140.49 202.45C155.046 198.337 154.318 175.304 171.057 183.53C187.796 191.756 223.458 210.677 231.464 243.582C237.868 269.906 234.132 301.166 231.464 313.505H198.713L181.974 495.306Z" fill="url(#paint0_linear_1_3)"/>
<path d="M17.6798 291.846C13.0506 296.52 9.96443 307.704 9 312.712C9.72332 311.043 13.6292 326.066 29.253 339.421C50.2293 357.783 54.7039 361.868 71.9289 369.468C96.5217 380.319 118.945 376.98 134.134 374.476C149.324 371.972 170.3 356.948 176.087 351.94C180.716 347.934 187.901 335.804 192 331.074V312.712C190.312 316.051 180.282 326.066 153.664 339.421C120.391 356.114 90.7352 337.751 80.6087 330.24C70.4822 322.728 58.4491 295.355 56.0158 291.846C53.1225 287.672 53.8459 287.672 47.336 285.168C40.8261 282.665 38.6561 282.665 33.5929 283.499C28.5296 284.334 23.4664 286.003 17.6798 291.846Z" fill="url(#paint1_linear_1_3)"/>
<path d="M230 313.397C227.082 339.525 219.205 393.782 211.036 401.787C200.825 411.794 180.402 402.621 173.838 388.445C167.274 374.269 180.402 304.288 180.402 282.544C180.402 269.161 180.92 252.967 180.822 243.352C180.786 239.786 165.815 235.847 180.402 235.847L177.485 220.003L178.944 215H185.508L191.343 233.345C191.906 236.563 190.064 240.42 190.569 242.165C191.374 244.942 192.584 248.705 195.719 262.531C200.295 282.71 201.554 283.377 203.013 290.048C203.898 294.093 210.407 307.373 211.036 313.397H230Z" fill="url(#paint2_linear_1_3)"/>
<path d="M114.589 200.642C103.273 197.351 95.4815 185.558 93 180.073L120.544 134.823L151.811 134L160 185.01C158.511 189.946 156.278 193.237 154.044 196.528L154.044 196.528C151.811 199.819 144.367 203.933 138.411 203.933C132.456 203.933 128.733 204.756 114.589 200.642Z" fill="url(#paint3_linear_1_3)"/>
<path d="M121.367 144.334C109.435 139.667 109.435 133.834 95.1179 112.834C92.334 102.334 92.2544 70.1335 95.1178 53.3335C97.9813 36.5334 116.594 29.2222 130.911 23C140.854 26.5 161.933 34.9 166.705 40.5001C172.671 47.5001 176.25 80.1669 181.023 88.3336C185.795 96.5003 171.477 97.667 172.671 108.167C173.864 118.667 181.023 122.167 172.671 138.5C167.898 147.834 133.298 149.001 121.367 144.334Z" fill="url(#paint4_linear_1_3)"/>
<path d="M173.083 58.2639H142.851H124.855L111.898 75.5768C111.898 83.5463 110.314 97.0119 103.98 87.1188C96.0619 74.7524 96.0619 98.6607 103.98 111.027C110.314 120.92 111.898 132.187 111.898 136.584C108.539 139.332 100.669 142.025 96.0619 130.813C90.3033 116.798 69.4283 114.325 78.0662 93.7142C86.7041 73.1036 78.786 68.9814 83.105 48.3708C87.424 27.7602 91.0231 30.2335 111.898 17.0427C132.773 3.85194 142.851 17.0427 154.368 6.3252C165.885 -4.39232 194.678 -1.91905 191.799 17.0427C189.495 32.2121 178.362 50.8441 173.083 58.2639Z" fill="#825005"/>
<defs>
<linearGradient id="paint0_linear_1_3" x1="117.5" y1="178.221" x2="117.5" y2="483.022" gradientUnits="userSpaceOnUse">
<stop stop-color="#00FFFF"/>
<stop offset="1" stop-color="#005FCF"/>
</linearGradient>
<linearGradient id="paint1_linear_1_3" x1="46.6126" y1="302.696" x2="170.912" y2="369.348" gradientUnits="userSpaceOnUse">
<stop stop-color="#FFBB89"/>
<stop offset="0.9999" stop-color="#FFD0AE"/>
<stop offset="1" stop-color="#FFD0AE" stop-opacity="0"/>
</linearGradient>
<linearGradient id="paint2_linear_1_3" x1="201" y1="215" x2="201" y2="406" gradientUnits="userSpaceOnUse">
<stop offset="0.565" stop-color="#FFD0AE"/>
<stop offset="1" stop-color="#FF9C54"/>
</linearGradient>
<linearGradient id="paint3_linear_1_3" x1="126.5" y1="134" x2="126.5" y2="204" gradientUnits="userSpaceOnUse">
<stop stop-color="#FF9548"/>
<stop offset="1" stop-color="#FFD0AE"/>
</linearGradient>
<linearGradient id="paint4_linear_1_3" x1="137.5" y1="23" x2="137.5" y2="147.834" gradientUnits="userSpaceOnUse">
<stop stop-color="#FFD0AE"/>
<stop offset="1" stop-color="#FFA563"/>
</linearGradient>
</defs>
</svg>
