<svg width="319" height="412" viewBox="0 0 319 412" fill="none" xmlns="http://www.w3.org/2000/svg">
<line y1="-0.5" x2="122.265" y2="-0.5" transform="matrix(0.22106 0.97526 -0.964024 0.265814 253.431 284.954)" stroke="#100614"/>
<line y1="-0.5" x2="122.501" y2="-0.5" transform="matrix(-0.275794 0.961217 -0.944144 -0.329534 202.078 286.445)" stroke="#0F0B11"/>
<line y1="-0.5" x2="123.719" y2="-0.5" transform="matrix(-0.218462 0.975845 -0.964861 -0.26276 206.132 283.464)" stroke="black"/>
<line y1="-0.5" x2="117.592" y2="-0.5" transform="matrix(0.310291 0.950642 -0.929417 0.369031 257.485 286.445)" stroke="#09020C"/>
<path d="M268.978 271.951C275.732 263.031 280.46 242.961 279.784 220.661C279.143 199.503 284.313 153.814 294.35 126.257C294.898 124.771 297.615 119.419 304.099 109.904C312.203 98.0108 319.633 110.647 318.957 117.337C318.282 124.027 311.528 141.124 308.151 160.451C306.694 168.79 306.111 175.331 304.099 189.441C302.059 203.736 299.371 237.675 299.371 250.394C299.371 275.667 286.538 289.791 268.978 297.224C261.413 300.426 184.553 306.144 173.072 297.224C163.886 290.088 169.244 283.844 173.072 281.614H246.69C251.868 278.889 263.575 279.087 268.978 271.951Z" fill="#BEBEBF"/>
<path d="M98.6373 274.535C111.671 263.84 169.913 239.626 209.285 227L212 241.112C188.468 250.272 120.631 271.267 116.287 278.991C111.942 286.716 115.608 300.778 116.287 307.215C115.608 308.948 104.882 326.972 89.1338 343.609C73.3852 360.246 46.3682 385.945 34.1495 393.372H23.2884C22.8358 394.61 22.338 394.857 26.6825 385.945C32.113 374.804 82.3456 287.904 98.6373 274.535Z" fill="url(#paint0_linear_1_10)"/>
<path d="M216.935 280.386C217.616 274.679 212.981 247.483 202.621 232C186.489 234.978 153.136 250.759 135.141 260.287C112.648 272.197 114.693 274.43 111.285 284.852C108.559 293.189 126.053 366.239 135.141 398H148.092C152.182 365.991 161.043 333.238 161.043 299.74C181.218 296.167 215.117 281.626 216.935 280.386Z" fill="url(#paint1_linear_1_10)"/>
<path d="M190.179 154.291C193.797 140.183 197.403 113.464 202 105C202 124.418 199.636 168.63 190.179 190.139C180.722 211.648 169.164 221.506 165.224 223H114V216.278L163.254 211.051V199.101C176.954 193.127 185.582 172.215 190.179 154.291Z" fill="url(#paint2_linear_1_10)"/>
<path d="M176.991 222.29H129C129.676 220.863 131.517 216.582 129.895 213.728C128.273 210.874 160.093 207.564 169.556 200.172C203.352 173.772 196.728 125.111 202.676 113.124C206.726 104.963 207.454 110.561 207.507 113.164C211.605 114.769 220.294 113.52 225.657 109.557C231.065 105.561 235.796 96 235.796 96C240.528 105.276 257.967 127.251 265.537 146.659C275 170.918 270.944 185.901 272.972 197.318C275 208.734 275 235.847 275 250.117C275 264.387 268.241 273.591 263.509 280.013C258.778 286.435 231.741 299.907 221.602 294.913C211.463 289.918 202 254.578 191.861 235.313C189.608 231.032 191.861 216.689 191.861 216.689C185.102 205.273 174.963 222.29 176.991 222.29Z" fill="url(#paint3_linear_1_10)"/>
<path d="M214.064 158.296C205.393 154.527 193.419 159.867 188.515 163.008C185.419 171.086 176.902 188.991 167.612 195.991C155.999 204.742 146.257 206.19 132.402 209.346C118.097 212.605 116.074 214.088 110.006 216.312C108.763 216.768 75.6598 226.692 105.286 221.502C105.268 222.987 113.247 221.455 112.643 222.243H176.128C193.161 222.243 214.064 199.357 221.032 187.241C226.606 177.548 228 171.086 228 169.066C226.968 167.047 222.735 162.066 214.064 158.296Z" fill="url(#paint4_linear_1_10)"/>
<path d="M214.064 158.296C205.393 154.527 193.419 159.867 188.515 163.008C185.419 171.086 176.902 188.991 167.612 195.991C155.999 204.742 146.257 206.19 132.402 209.346C118.097 212.605 116.074 214.088 110.006 216.312C108.763 216.768 75.6598 226.692 105.286 221.502C105.268 222.987 113.247 221.455 112.643 222.243H176.128C193.161 222.243 214.064 199.357 221.032 187.241C226.606 177.548 228 171.086 228 169.066C226.968 167.047 222.735 162.066 214.064 158.296Z" fill="black" fill-opacity="0.2"/>
<path d="M220.176 112.697C218.059 114.151 211 117.057 199 112.697L203.941 73.4535L222.294 72L235 95.9822C235 96.7089 233.387 99.6159 227.941 106.156C223.706 111.244 222.869 110.849 220.176 112.697Z" fill="url(#paint5_linear_1_10)"/>
<path d="M217.824 152.429C210.247 148.274 199.784 154.161 195.5 157.624C192.794 166.529 185.353 186.268 177.235 193.986C167.088 203.633 156.941 206.601 144.765 209.569C132.588 212.538 134.618 213.28 129.206 215.506C128.142 215.944 114.947 221.143 115 222.185C115.089 223.949 128.53 222.185 128.53 222.927H184.677C199.559 222.927 217.824 197.696 223.912 184.339C228.782 173.653 230 166.529 230 164.303C229.098 162.076 225.4 156.585 217.824 152.429Z" fill="url(#paint6_linear_1_10)"/>
<path d="M198.95 85.6768C207.598 85.0234 229.948 76.8362 230.643 60.8126C230.357 55.9878 229.275 44.3942 227.235 36.6179C225.194 28.8416 221.005 20.3465 219.166 17.071C211.507 17.7598 195.156 19.6781 191.02 21.8411C185.85 24.5447 188.168 25.9116 187.751 35.5257C187.334 45.1399 183.972 47.2663 181.886 54.253C179.799 61.2396 186.523 56.9867 188.563 64.763C190.604 72.5393 190.302 86.3302 198.95 85.6768Z" fill="url(#paint7_linear_1_10)"/>
<path d="M175.189 4.27011C173.561 12.1605 182.881 25.0076 186.049 25.5134L187.406 26.2721C191.478 23.996 207.224 26.879 210.482 32.3415C213.739 37.8041 214.554 42.7103 214.554 44.4806C215.459 40.4342 218.354 33.252 222.698 36.8937C228.128 41.4458 216.869 48.9132 222.698 54.3435C226.77 58.1371 228.354 66.2297 228.806 68C232.879 67.7471 240.208 65.1169 242.38 59.6543C245.095 52.8261 247.81 52.0675 244.416 43.7219C241.023 35.3764 244.416 38.4111 242.38 28.5481C240.26 18.278 234.236 15.6505 230.164 14.133C225.135 12.2591 225.418 16.0324 216.59 11.0984C207.088 5.78751 203.016 -3.31671 196.229 1.23542C189.442 5.78755 177.226 -5.59284 175.189 4.27011Z" fill="#6F4506"/>
<path d="M0 405.415L24.6059 394H33.9163C36.3547 395.665 33.9163 405.415 33.9163 405.415C33.9163 405.415 11.3054 408.982 0 405.415Z" fill="#EEC88D"/>
<path d="M111 410.293L136.309 398H145.885C148.393 399.793 145.885 410.293 145.885 410.293C145.885 410.293 122.628 414.134 111 410.293Z" fill="#EEC88D"/>
<defs>
<linearGradient id="paint0_linear_1_10" x1="117.5" y1="227" x2="117.5" y2="394" gradientUnits="userSpaceOnUse">
<stop stop-color="#770593"/>
<stop offset="1" stop-color="#300A9C"/>
</linearGradient>
<linearGradient id="paint1_linear_1_10" x1="164" y1="232" x2="164" y2="398" gradientUnits="userSpaceOnUse">
<stop stop-color="#A600E0"/>
<stop offset="1" stop-color="#250E84"/>
</linearGradient>
<linearGradient id="paint2_linear_1_10" x1="158" y1="105" x2="158" y2="223" gradientUnits="userSpaceOnUse">
<stop stop-color="#0E94A6"/>
<stop offset="1" stop-color="#2369BB"/>
</linearGradient>
<linearGradient id="paint3_linear_1_10" x1="202" y1="96" x2="202" y2="285.228" gradientUnits="userSpaceOnUse">
<stop stop-color="#00FFE0"/>
<stop offset="1" stop-color="#163ECC"/>
</linearGradient>
<linearGradient id="paint4_linear_1_10" x1="169.958" y1="157" x2="169.958" y2="222.243" gradientUnits="userSpaceOnUse">
<stop stop-color="#FFA563"/>
<stop offset="0.995" stop-color="#FFD0AE"/>
<stop offset="0.9998" stop-color="#FFD0AE"/>
<stop offset="0.9999" stop-color="#FFD0AE"/>
<stop offset="1" stop-color="#FFD0AE" stop-opacity="0"/>
</linearGradient>
<linearGradient id="paint5_linear_1_10" x1="217" y1="72" x2="217" y2="115" gradientUnits="userSpaceOnUse">
<stop stop-color="#FFD0AE"/>
<stop offset="1" stop-color="#FFAE73"/>
</linearGradient>
<linearGradient id="paint6_linear_1_10" x1="179.286" y1="151" x2="179.286" y2="222.927" gradientUnits="userSpaceOnUse">
<stop stop-color="#FFA563"/>
<stop offset="0.995" stop-color="#FFD0AE"/>
<stop offset="0.9998" stop-color="#FFD0AE"/>
<stop offset="0.9999" stop-color="#FFD0AE"/>
<stop offset="1" stop-color="#FFD0AE" stop-opacity="0"/>
</linearGradient>
<linearGradient id="paint7_linear_1_10" x1="197.262" y1="19.7133" x2="216.761" y2="80.8032" gradientUnits="userSpaceOnUse">
<stop stop-color="#FFD0AE"/>
<stop offset="1" stop-color="#FFAB6D"/>
</linearGradient>
</defs>
</svg>
