<svg width="33" height="689" viewBox="0 0 33 689" fill="none" xmlns="http://www.w3.org/2000/svg">
<g filter="url(#filter0_d_1_9)">
<path d="M11 32.5C11 29.4624 13.4624 27 16.5 27C19.5376 27 22 29.4624 22 32.5V675.5C22 678.538 19.5376 681 16.5 681C13.4624 681 11 678.538 11 675.5V32.5Z" fill="url(#paint0_linear_1_9)" shape-rendering="crispEdges"/>
</g>
<path d="M33 21C33 32.598 25.6127 42 16.5 42C7.3873 42 0 32.598 0 21C0 9.40202 7.3873 0 16.5 0C25.6127 0 33 9.40202 33 21Z" fill="url(#paint1_linear_1_9)"/>
<defs>
<filter id="filter0_d_1_9" x="7" y="27" width="19" height="662" filterUnits="userSpaceOnUse" color-interpolation-filters="sRGB">
<feFlood flood-opacity="0" result="BackgroundImageFix"/>
<feColorMatrix in="SourceAlpha" type="matrix" values="0 0 0 0 0 0 0 0 0 0 0 0 0 0 0 0 0 0 127 0" result="hardAlpha"/>
<feOffset dy="4"/>
<feGaussianBlur stdDeviation="2"/>
<feComposite in2="hardAlpha" operator="out"/>
<feColorMatrix type="matrix" values="0 0 0 0 0 0 0 0 0 0 0 0 0 0 0 0 0 0 0.25 0"/>
<feBlend mode="normal" in2="BackgroundImageFix" result="effect1_dropShadow_1_9"/>
<feBlend mode="normal" in="SourceGraphic" in2="effect1_dropShadow_1_9" result="shape"/>
</filter>
<linearGradient id="paint0_linear_1_9" x1="16.5" y1="27" x2="16.5" y2="681" gradientUnits="userSpaceOnUse">
<stop stop-color="#87550C"/>
<stop offset="0.129" stop-color="#A26100"/>
<stop offset="0.549" stop-color="#E18801"/>
<stop offset="0.9999" stop-color="#E38902"/>
<stop offset="1" stop-color="#E38902" stop-opacity="0"/>
</linearGradient>
<linearGradient id="paint1_linear_1_9" x1="-9.28125" y1="-10.5" x2="46.3968" y2="27.9002" gradientUnits="userSpaceOnUse">
<stop offset="0.564" stop-color="#E38902"/>
<stop offset="0.829" stop-color="#A26100"/>
<stop offset="0.884" stop-color="#A26100"/>
<stop offset="0.929" stop-color="#C97901"/>
<stop offset="0.9588" stop-color="#A26100"/>
<stop offset="0.9589" stop-color="#E38902"/>
<stop offset="1" stop-color="#A26100"/>
</linearGradient>
</defs>
</svg>
