<svg width="641" height="730" viewBox="0 0 641 730" fill="none" xmlns="http://www.w3.org/2000/svg">
<path d="M187.968 96.2401C286.304 25.3518 315.124 21.7397 465.446 35.1711C485.28 39.6483 577.311 102.701 618.9 167.768C670.886 249.103 615.768 360.286 608.879 412.519C601.989 464.753 607.626 475.946 596.352 539.372C585.078 602.798 541.234 661.001 465.446 701.296C389.659 741.59 374.627 728.159 258.127 726.666C141.627 725.174 83.3776 684.133 41.4127 616.23C-0.552177 548.326 5.71124 464.007 18.8644 360.286C32.0176 256.565 19.4999 211.794 84.0131 167.768C148.526 123.743 89.6325 167.128 187.968 96.2401Z" fill="url(#paint0_linear_1_2)"/>
<path d="M178.685 67.2401C276.865 -3.64817 305.64 -7.26033 455.724 6.17112C475.527 10.6483 567.412 73.7005 608.935 138.768C660.839 220.103 605.808 331.286 598.929 383.519C592.051 435.753 597.679 446.946 586.422 510.372C575.166 573.798 531.391 632.001 455.724 672.296C380.057 712.59 365.048 699.159 248.733 697.666C132.418 696.174 74.26 655.133 32.3614 587.23C-9.53706 519.326 -3.28356 435.007 9.84881 331.286C22.9812 227.565 10.4833 182.794 74.8944 138.768C139.306 94.7431 80.5049 138.128 178.685 67.2401Z" fill="url(#paint1_linear_1_2)"/>
<defs>
<linearGradient id="paint0_linear_1_2" x1="325" y1="66.9927" x2="325" y2="730" gradientUnits="userSpaceOnUse">
<stop stop-color="#07D9C0"/>
<stop offset="1" stop-color="#8A01A0"/>
</linearGradient>
<linearGradient id="paint1_linear_1_2" x1="315.5" y1="37.9927" x2="315.5" y2="701" gradientUnits="userSpaceOnUse">
<stop stop-color="#00FFE0"/>
<stop offset="1" stop-color="#AE00CA"/>
</linearGradient>
</defs>
</svg>
