<svg width="959" height="771" viewBox="0 0 959 771" fill="none" xmlns="http://www.w3.org/2000/svg">
<path d="M44.6834 730C14.3123 730 -24.3167 770.5 20.1834 770.5H912.183V1H564.183L620.183 14.5C662.183 39 662.183 77.4 662.183 115C662.183 162 702.183 192.5 662.183 244C622.183 295.5 620.183 358 620.183 396C620.183 434 646.183 442.5 662.183 498.5C678.183 554.5 644.683 612 586.683 652C561.833 669.138 410.183 685.5 334.683 685.5C301.562 685.5 220.683 708 140.683 699C60.6833 690 89.1834 730 44.6834 730Z" fill="url(#paint0_linear_21_2)"/>
<path d="M91 730C60.629 730 22 770.5 66.5 770.5H958.5V1H610.5L666.5 19C708.5 37 708.5 77.4 708.5 115C708.5 162 748.5 192.5 708.5 244C668.5 295.5 666.5 358 666.5 396C666.5 434 692.5 442.5 708.5 498.5C724.5 554.5 691 612 633 652C608.15 669.138 456.5 685.5 381 685.5C347.879 685.5 267 708 187 699C107 690 135.5 730 91 730Z" fill="url(#paint1_linear_21_2)"/>
<path d="M91 729C60.629 729 22 769.5 66.5 769.5H958.5V0H610.5L666.5 13.5C673.167 29 708.5 76.4 708.5 114C708.5 161 748.5 191.5 708.5 243C668.5 294.5 666.5 357 666.5 395C666.5 433 692.5 441.5 708.5 497.5C724.5 553.5 691 611 633 651C608.15 668.138 456.5 684.5 381 684.5C347.879 684.5 267 707 187 698C107 689 135.5 729 91 729Z" fill="url(#paint2_linear_21_2)"/>
<defs>
<linearGradient id="paint0_linear_21_2" x1="809.683" y1="-28.0001" x2="287.683" y2="783.5" gradientUnits="userSpaceOnUse">
<stop stop-color="#00C1C1"/>
<stop offset="1" stop-color="#9E00B7"/>
</linearGradient>
<linearGradient id="paint1_linear_21_2" x1="856" y1="-28.0001" x2="334" y2="783.5" gradientUnits="userSpaceOnUse">
<stop stop-color="#00FFFF"/>
<stop offset="1" stop-color="#AE00CA"/>
</linearGradient>
<linearGradient id="paint2_linear_21_2" x1="856" y1="-29.0001" x2="334" y2="782.5" gradientUnits="userSpaceOnUse">
<stop stop-color="#00FFFF"/>
<stop offset="1" stop-color="#AE00CA"/>
</linearGradient>
</defs>
</svg>
