<svg width="1204" height="771" viewBox="0 0 1204 771" fill="none" xmlns="http://www.w3.org/2000/svg">
<path d="M1180 23V771H891.37C891.37 759.872 908.883 725.52 959.701 725.52C1057.23 725.52 1102.54 691.652 1085.89 614.723C1068.83 535.919 1096.69 466.188 1102.54 403.29C1108.38 340.392 1146.38 229.595 1068.43 181.696C1030.45 158.357 971.736 158.956 907.168 158.956C868.494 158.956 833.547 170.084 726.416 170.084C657.596 170.084 559.618 181.696 488.563 181.696C461.759 181.696 386.636 166.918 311.171 170.084C176.257 175.744 123.947 193.608 96.5365 193.608C69.1258 193.608 23.0316 204.151 0 193.608V23H1180Z" fill="url(#paint0_linear_1_2)"/>
<path d="M1204 0V771H909.5C909.5 759.53 927.369 724.122 979.221 724.122C1078.73 724.122 1124.96 689.212 1107.97 609.918C1090.57 528.69 1118.99 456.815 1124.96 391.983C1130.92 327.151 1169.7 212.948 1090.16 163.576C1051.41 139.519 991.5 140.136 925.619 140.136C886.159 140.136 850.5 151.607 741.191 151.607C670.971 151.607 571 163.576 498.5 163.576C471.151 163.576 394.5 148.343 317.5 151.607C179.842 157.441 126.468 175.854 98.5 175.854C70.5318 175.854 23.5 186.721 0 175.854V0H1204Z" fill="url(#paint1_linear_1_2)"/>
<defs>
<linearGradient id="paint0_linear_1_2" x1="1109.36" y1="-33.1238" x2="534.75" y2="506.833" gradientUnits="userSpaceOnUse">
<stop stop-color="#00DBDB"/>
<stop offset="1" stop-color="#740087"/>
</linearGradient>
<linearGradient id="paint1_linear_1_2" x1="1131.92" y1="-57.8495" x2="746.928" y2="526.998" gradientUnits="userSpaceOnUse">
<stop stop-color="#00FFFF"/>
<stop offset="1" stop-color="#AE00CA"/>
</linearGradient>
</defs>
</svg>
