<svg width="664" height="771" viewBox="0 0 664 771" fill="none" xmlns="http://www.w3.org/2000/svg">
<path d="M0 173.974V70.3825V0H622.684H652.687H664C622.684 17.3478 597.994 29.6399 536.61 41.1391C459.882 55.5129 437.748 24.7826 353.641 41.1391C269.535 57.4955 198.708 101.113 146.572 173.974C94.4356 246.834 148.539 313.252 106.732 414.86C64.9244 516.469 156.901 518.464 156.901 671.607C156.901 715.982 132.258 758.655 129.155 768.755H132.8C129.132 771.866 128.272 771.629 129.155 768.755H0V173.974Z" fill="url(#paint0_linear_6_4)"/>
<path d="M0 173.974V70.3825V0H622.684H652.687H664C622.684 17.3478 597.994 29.6399 536.61 41.1391C459.882 55.5129 437.748 24.7826 353.641 41.1391C269.535 57.4955 198.708 101.113 146.572 173.974C94.4356 246.834 148.539 313.252 106.732 414.86C64.9244 516.469 156.901 518.464 156.901 671.607C156.901 715.982 132.258 758.655 129.155 768.755H132.8C129.132 771.866 128.272 771.629 129.155 768.755H0V173.974Z" fill="url(#paint1_linear_6_4)"/>
<path d="M0 173.974V70.3825V0H633.477H664C621.968 29.2435 608.358 29.6399 545.911 41.1391C467.852 55.5129 427.322 41.1391 333.251 41.1391C246.108 41.1391 149.112 101.113 96.0724 173.974C43.0324 246.834 124.594 313.252 82.0618 414.86C39.5298 516.469 108.582 518.464 108.582 671.607C108.582 715.982 90.7901 758.655 90.8573 768.755H96.0724C92.3411 771.866 90.8764 771.629 90.8573 768.755H0V173.974Z" fill="url(#paint2_linear_6_4)"/>
<path d="M0 173.974V70.3825V0H633.477H664C621.968 29.2435 608.358 29.6399 545.911 41.1391C467.852 55.5129 427.322 41.1391 333.251 41.1391C246.108 41.1391 149.112 101.113 96.0724 173.974C43.0324 246.834 124.594 313.252 82.0618 414.86C39.5298 516.469 108.582 518.464 108.582 671.607C108.582 715.982 90.7901 758.655 90.8573 768.755H96.0724C92.3411 771.866 90.8764 771.629 90.8573 768.755H0V173.974Z" fill="url(#paint3_linear_6_4)"/>
<defs>
<linearGradient id="paint0_linear_6_4" x1="584.812" y1="-10.4087" x2="115.226" y2="767.552" gradientUnits="userSpaceOnUse">
<stop stop-color="#00FFFF"/>
<stop offset="1" stop-color="#AE00CA"/>
</linearGradient>
<linearGradient id="paint1_linear_6_4" x1="584.812" y1="-10.4087" x2="115.226" y2="767.552" gradientUnits="userSpaceOnUse">
<stop stop-color="#00AAAA"/>
<stop offset="1" stop-color="#87009D"/>
</linearGradient>
<linearGradient id="paint2_linear_6_4" x1="594.948" y1="-10.4087" x2="129.16" y2="774.634" gradientUnits="userSpaceOnUse">
<stop stop-color="#00FFFF"/>
<stop offset="1" stop-color="#AE00CA"/>
</linearGradient>
<linearGradient id="paint3_linear_6_4" x1="594.948" y1="-10.4087" x2="129.16" y2="774.634" gradientUnits="userSpaceOnUse">
<stop stop-color="#00FFFF"/>
<stop offset="1" stop-color="#AE00CA"/>
</linearGradient>
</defs>
</svg>
