<svg width="1201" height="772" viewBox="0 0 1201 772" fill="none" xmlns="http://www.w3.org/2000/svg">
<path d="M53 429.686C53.2246 426.219 56.5032 427.16 65.1263 425.971H67.8211L96.1158 530.714H222.095L191.779 427.457L193.126 423H200.537L245 553H84.6632L53 429.686Z" fill="#C6C6C6"/>
<path d="M95.7001 532L68 427.54C71.3781 404.658 87.1874 350.687 123.4 317.857C168.666 276.819 222.715 242.496 245.01 195.489C267.305 148.482 261.9 132.813 277.439 80.5835C289.871 38.7994 318.652 9.45115 331.488 0H1201V105.206C1195.82 111.921 1163.3 133.261 1074.66 164.898C963.86 204.443 973.319 173.105 890.894 220.112C808.47 267.119 722.667 286.519 634.838 276.819C547.008 267.119 467.286 299.203 415.94 343.226C364.593 387.248 244.335 376.056 222.715 390.233C205.419 401.574 195.24 419.83 192.312 427.54L222.715 532H95.7001Z" fill="url(#paint0_linear_1_11)"/>
<ellipse cx="167.5" cy="542" rx="6.5" ry="7" fill="#8C8C8C"/>
<path d="M146 571.617L151.954 553H180.4L173.785 571.617H146Z" fill="#8C8C8C"/>
<path d="M280 571H155.519H27V581H280V571Z" fill="#D9D9D9"/>
<path d="M37.2679 581C26.2461 633.292 3.66275 740.256 1.50338 749.773C-0.655982 759.29 4.65246 766.626 7.5766 769.104C9.37607 770.095 14.7295 771.78 21.7474 770.591C28.7654 769.401 34.1188 759.686 35.9183 754.977L98 581" stroke="black"/>
<path d="M266.976 580C277.316 630.091 298.502 732.551 300.528 741.667C302.554 750.783 297.573 757.81 294.83 760.184C293.142 761.133 288.12 762.748 281.536 761.608C274.952 760.469 269.93 751.163 268.242 746.652L210 580" stroke="black"/>
<path d="M252.228 580C262.795 627.889 284.447 725.845 286.517 734.561C288.588 743.276 283.498 749.994 280.695 752.264C278.969 753.171 273.837 754.715 267.108 753.625C260.38 752.536 255.247 743.639 253.522 739.327L194 580" stroke="#9B9B9B"/>
<path d="M56.0245 580C45.6845 630.366 24.498 733.389 22.4722 742.555C20.4465 751.721 25.4265 758.787 28.1698 761.174C29.858 762.129 34.8802 763.752 41.4641 762.606C48.0479 761.46 53.0702 752.103 54.7584 747.568L113 580" stroke="#9B9B9B"/>
<defs>
<linearGradient id="paint0_linear_1_11" x1="634.5" y1="0" x2="634.5" y2="532" gradientUnits="userSpaceOnUse">
<stop stop-color="#00FFE0"/>
<stop offset="1" stop-color="#AE00CA"/>
</linearGradient>
</defs>
</svg>
