<svg width="1011" height="494" viewBox="0 0 1011 494" fill="none" xmlns="http://www.w3.org/2000/svg">
<path d="M12.4757 494L0 462.516L14.4588 455.9C17.0274 455.008 19.3075 454.613 21.2992 454.714C23.3021 454.811 24.9737 455.339 26.3141 456.299C27.6657 457.255 28.6503 458.563 29.2681 460.224C29.7374 461.487 29.883 462.709 29.7048 463.891C29.5226 465.062 29.0716 466.138 28.3519 467.119C27.6322 468.099 26.6894 468.938 25.5238 469.634L25.6441 469.958C27.053 469.542 28.466 469.46 29.8833 469.711C31.3118 469.959 32.602 470.546 33.7539 471.474C34.9019 472.391 35.7727 473.648 36.3663 475.244C37.0282 477.024 37.1508 478.778 36.7342 480.505C36.3136 482.222 35.3659 483.793 33.891 485.218C32.4122 486.633 30.4053 487.78 27.8703 488.659L12.4757 494ZM18.3669 484.667L23.4929 482.889C25.2908 482.265 26.4919 481.477 27.0959 480.525C27.7111 479.568 27.8001 478.502 27.3629 477.326C27.046 476.474 26.5666 475.812 25.9248 475.341C25.2789 474.859 24.5141 474.582 23.6304 474.511C22.7426 474.429 21.7683 474.573 20.7074 474.941L15.4307 476.771L18.3669 484.667ZM13.5113 471.61L18.1012 470.017C19.0058 469.704 19.7557 469.279 20.3509 468.744C20.9462 468.208 21.337 467.598 21.5233 466.912C21.7207 466.222 21.675 465.489 21.3862 464.713C20.9731 463.602 20.2405 462.869 19.1886 462.516C18.1367 462.162 16.9184 462.226 15.5336 462.706L10.8097 464.345L13.5113 471.61Z" fill="black"/>
<path d="M25.1927 438.137L16.281 441.229L15.5336 404.075L26.5728 400.245L50.4706 429.367L41.5588 432.459L24.2836 410.466L24.0155 410.559L25.1927 438.137ZM19.1538 425.508L37.7813 419.045L40.0437 425.129L21.4161 431.592L19.1538 425.508Z" fill="black"/>
<path d="M46.7934 377.418L34.4708 344.281L48.6425 339.364C51.2111 338.473 53.6083 338.189 55.8343 338.513C58.0675 338.822 60.0131 339.663 61.6712 341.037C63.3252 342.399 64.5754 344.219 65.4218 346.495C66.2722 348.781 66.497 350.962 66.0962 353.038C65.7026 355.099 64.7254 356.93 63.1647 358.531C61.604 360.132 59.5115 361.387 56.8871 362.298L48.1429 365.332L45.7963 359.021L52.9994 356.522C54.2501 356.088 55.2161 355.516 55.8972 354.804C56.5895 354.089 57.0131 353.279 57.1678 352.372C57.3186 351.455 57.2054 350.49 56.8283 349.476C56.4473 348.451 55.9006 347.642 55.1882 347.049C54.4719 346.445 53.6132 346.085 52.612 345.97C51.6109 345.854 50.4905 346.012 49.2509 346.442L45.1635 347.86L55.0854 374.541L46.7934 377.418Z" fill="black"/>
<path d="M76.6087 289.01L84.8839 286.139L91.9838 305.231L92.2686 305.133L98.6703 281.356L105.806 278.88L118.129 312.017L109.619 314.969L102.507 295.844L95.9501 319.712L88.9313 322.147L76.6087 289.01Z" fill="black"/>
<path d="M153.379 249.972L144.467 253.064L143.72 215.911L154.759 212.081L178.657 241.202L169.745 244.294L152.47 222.301L152.202 222.394L153.379 249.972ZM147.34 237.344L165.968 230.881L168.23 236.965L149.603 243.427L147.34 237.344Z" fill="black"/>
<path d="M195.977 188.527L183.654 155.39L191.946 152.513L196.892 165.813L210.41 161.123L205.465 147.823L213.74 144.952L226.062 178.089L217.787 180.961L212.835 167.644L199.317 172.334L204.269 185.651L195.977 188.527Z" fill="black"/>
<path d="M245 110.178L242.581 103.674L271.578 93.6137L273.997 100.118L263.594 103.727L273.498 130.36L265.323 133.196L255.419 106.563L245 110.178Z" fill="black"/>
<path d="M332.056 66.0435L339.695 63.3934C342.498 62.4209 345.095 62.0131 347.486 62.17C349.877 62.327 351.931 63.0026 353.648 64.197C355.377 65.3875 356.641 67.056 357.439 69.2026C358.237 71.3492 358.37 73.4345 357.836 75.4585C357.314 77.4786 356.19 79.3055 354.465 80.9392C352.74 82.5729 350.476 83.8759 347.673 84.8484L334.858 89.2944L322.711 55.6628L330.811 53.2861L340.775 80.0807L345.314 78.5057C346.521 78.0873 347.463 77.5352 348.141 76.8493C348.826 76.1489 349.252 75.3798 349.42 74.5422C349.595 73.69 349.518 72.8397 349.19 71.9914C348.744 70.7578 347.888 69.8978 346.623 69.4112C345.354 68.9138 343.814 68.9789 342.005 69.6066L334.367 72.2568L332.056 66.0435ZM360.025 43.1504L372.348 76.2877L364.073 79.1587L351.75 46.0214L360.025 43.1504Z" fill="black"/>
<path d="M187.853 289.01L200.176 322.147L192.001 324.983L182.061 298.253L169.33 302.67L179.27 329.4L171.095 332.236L158.772 299.099L187.853 289.01Z" fill="black"/>
<path d="M246.233 262.219C247.589 265.865 248.012 269.207 247.503 272.246C246.994 275.284 245.744 277.892 243.754 280.068C241.776 282.24 239.251 283.859 236.18 284.924C233.097 285.994 230.075 286.293 227.114 285.823C224.153 285.352 221.477 284.107 219.086 282.086C216.703 280.051 214.835 277.216 213.484 273.581C212.128 269.935 211.699 266.595 212.197 263.56C212.706 260.521 213.95 257.916 215.929 255.743C217.907 253.571 220.438 251.95 223.52 250.881C226.591 249.815 229.605 249.513 232.563 249.972C235.531 250.428 238.213 251.672 240.607 253.703C243.002 255.734 244.877 258.573 246.233 262.219ZM237.756 265.16C236.954 263.002 235.958 261.29 234.768 260.022C233.589 258.75 232.265 257.937 230.797 257.582C229.339 257.223 227.784 257.33 226.131 257.903C224.49 258.473 223.219 259.346 222.32 260.522C221.422 261.699 220.931 263.142 220.848 264.852C220.776 266.557 221.141 268.489 221.943 270.646C222.745 272.803 223.736 274.518 224.915 275.789C226.105 277.057 227.434 277.869 228.903 278.224C230.372 278.579 231.927 278.472 233.568 277.902C235.221 277.329 236.491 276.456 237.379 275.283C238.278 274.106 238.764 272.665 238.835 270.96C238.918 269.25 238.559 267.317 237.756 265.16Z" fill="black"/>
<path d="M279.5 247.42L277.166 241.142L278.068 240.72C279.222 240.161 280.03 239.351 280.492 238.289C280.951 237.216 281.049 235.733 280.786 233.839C280.53 231.931 279.898 229.452 278.891 226.404L274.113 211.877L298.185 203.525L304.346 220.094L310.507 236.662L302.483 239.446L292.507 212.619L284.115 215.531L287.658 226.687C288.876 230.539 289.516 233.77 289.579 236.379C289.637 238.977 289.022 241.102 287.733 242.755C286.455 244.404 284.403 245.719 281.577 246.699L279.5 247.42Z" fill="black"/>
<path d="M348.231 211.321L345.872 204.978L347.631 204.368C348.581 204.038 349.306 203.683 349.807 203.302C350.316 202.907 350.654 202.442 350.821 201.909C351 201.372 351.07 200.715 351.033 199.936L351.039 198.783L329.693 179.828L338.202 176.876L351.36 189.118L351.955 172.105L360.331 169.199L358.303 199.551C358.171 201.058 357.894 202.518 357.474 203.931C357.049 205.332 356.327 206.594 355.306 207.715C354.297 208.833 352.832 209.724 350.911 210.391L348.231 211.321Z" fill="black"/>
<path d="M392.697 164.884L400.721 162.101L404.644 172.65C405.073 173.804 405.626 174.666 406.304 175.234C406.993 175.799 407.864 176.088 408.915 176.101C409.962 176.103 411.245 175.84 412.764 175.313C413.177 175.17 413.72 174.969 414.394 174.711C415.063 174.443 415.762 174.152 416.49 173.838C417.229 173.521 417.906 173.206 418.522 172.895C419.149 172.58 419.626 172.305 419.955 172.069L422.247 178.234C421.901 178.488 421.405 178.782 420.76 179.116C420.114 179.449 419.419 179.782 418.672 180.114C417.926 180.446 417.229 180.742 416.582 181.003C415.935 181.264 415.439 181.455 415.093 181.575C412.211 182.575 409.547 183.055 407.098 183.015C404.646 182.965 402.523 182.325 400.73 181.096C398.936 179.867 397.566 177.98 396.62 175.434L392.697 164.884ZM412.966 157.852L421.04 155.051L433.363 188.188L425.288 190.99L412.966 157.852Z" fill="black"/>
<path d="M460.579 167.746L448.257 134.609L472.178 126.309L474.596 132.814L458.967 138.236L461.494 145.032L475.901 140.034L478.326 146.555L463.919 151.553L466.452 158.365L482.081 152.942L484.5 159.447L460.579 167.746Z" fill="black"/>
<path d="M508.731 135.576L496.409 102.439L504.701 99.5622L509.646 112.862L523.165 108.172L518.219 94.8721L526.494 92.0011L538.817 125.138L530.542 128.009L525.59 114.693L512.071 119.383L517.023 132.699L508.731 135.576Z" fill="black"/>
<path d="M538.817 51.0549L547.092 48.1839L554.192 67.2767L554.477 67.1779L560.878 43.4008L568.014 40.925L580.337 74.0623L572.045 76.9391L564.933 57.814L564.715 57.8895L558.158 81.7571L551.139 84.1922L538.817 51.0549Z" fill="black"/>
<path d="M632.026 33.4855L623.751 36.3565L613.829 9.67517L609.742 11.0933C608.502 11.5233 607.522 12.0582 606.801 12.6978C606.077 13.3267 605.618 14.0584 605.424 14.8929C605.237 15.7128 605.334 16.6351 605.715 17.6599C606.096 18.6846 606.627 19.4504 607.307 19.9573C607.983 20.4534 608.806 20.7161 609.775 20.7452C610.751 20.7597 611.854 20.5539 613.082 20.1277L620.503 17.5531L622.85 23.8633L613.904 26.9669C611.291 27.8735 608.87 28.2447 606.64 28.0805C604.417 27.9017 602.49 27.1942 600.858 25.9581C599.222 24.7112 597.976 22.9389 597.122 20.6413C596.279 18.376 596.06 16.242 596.462 14.239C596.861 12.2252 597.833 10.4507 599.381 8.91522C600.924 7.369 602.98 6.15029 605.548 5.25916L619.703 0.348206L632.026 33.4855ZM607.08 25.0417L615.958 21.9614L613.231 40.0063L604.168 43.1504L607.08 25.0417Z" fill="black"/>
<path d="M493.119 192.824L505.442 225.962L497.267 228.798L487.327 202.068L474.596 206.485L484.536 233.215L476.362 236.051L464.039 202.914L493.119 192.824Z" fill="black"/>
<path d="M547.966 224.444L535.644 191.306L549.815 186.39C552.384 185.498 554.781 185.215 557.007 185.539C559.24 185.848 561.186 186.689 562.844 188.062C564.498 189.425 565.748 191.244 566.594 193.52C567.445 195.807 567.67 197.988 567.269 200.063C566.875 202.124 565.898 203.955 564.337 205.556C562.777 207.157 560.684 208.413 558.06 209.323L549.316 212.357L546.969 206.047L554.172 203.548C555.423 203.114 556.389 202.541 557.07 201.83C557.762 201.115 558.186 200.304 558.34 199.398C558.491 198.481 558.378 197.515 558.001 196.502C557.62 195.477 557.073 194.668 556.361 194.075C555.645 193.471 554.786 193.111 553.785 192.995C552.784 192.88 551.663 193.037 550.423 193.467L546.336 194.885L556.258 221.567L547.966 224.444Z" fill="black"/>
<path d="M626.536 163.096C627.892 166.742 628.315 170.084 627.806 173.122C627.297 176.161 626.047 178.768 624.057 180.945C622.079 183.117 619.554 184.736 616.483 185.801C613.4 186.871 610.379 187.17 607.417 186.699C604.456 186.229 601.78 184.983 599.389 182.963C597.006 180.928 595.138 178.093 593.787 174.458C592.431 170.812 592.002 167.471 592.5 164.436C593.009 161.398 594.253 158.792 596.232 156.62C598.21 154.448 600.741 152.827 603.823 151.758C606.894 150.692 609.908 150.389 612.866 150.849C615.834 151.305 618.516 152.549 620.91 154.58C623.305 156.611 625.18 159.45 626.536 163.096ZM618.059 166.036C617.257 163.879 616.261 162.166 615.071 160.899C613.892 159.627 612.568 158.814 611.1 158.458C609.642 158.099 608.087 158.207 606.434 158.78C604.793 159.35 603.522 160.223 602.623 161.399C601.724 162.576 601.234 164.019 601.151 165.728C601.079 167.434 601.444 169.365 602.246 171.523C603.048 173.68 604.039 175.394 605.218 176.666C606.408 177.934 607.737 178.745 609.206 179.1C610.675 179.456 612.23 179.348 613.871 178.779C615.524 178.205 616.794 177.332 617.682 176.16C618.581 174.983 619.067 173.542 619.138 171.837C619.221 170.127 618.862 168.194 618.059 166.036Z" fill="black"/>
<path d="M663.919 116.335L672.345 113.412C675.159 112.435 677.866 112.136 680.465 112.513C683.059 112.879 685.36 113.877 687.366 115.508C689.367 117.127 690.89 119.339 691.932 122.144C692.927 124.819 693.172 127.358 692.666 129.762C692.161 132.166 691.022 134.291 689.249 136.136C687.473 137.97 685.177 139.376 682.363 140.352L673.937 143.275C671.101 144.259 668.389 144.597 665.803 144.289C663.225 143.965 660.946 143.027 658.969 141.472C656.991 139.917 655.499 137.786 654.492 135.079C653.453 132.285 653.178 129.646 653.666 127.163C654.166 124.675 655.302 122.491 657.074 120.61C658.845 118.729 661.127 117.304 663.919 116.335ZM666.38 122.953C665.062 123.41 663.971 124.069 663.105 124.929C662.236 125.779 661.695 126.831 661.481 128.087C661.267 129.342 661.467 130.795 662.08 132.446C662.654 133.988 663.43 135.144 664.409 135.912C665.396 136.666 666.5 137.093 667.723 137.193C668.941 137.281 670.192 137.103 671.476 136.657L679.952 133.717C681.259 133.263 682.332 132.623 683.172 131.796C684.023 130.965 684.558 129.963 684.778 128.791C685.009 127.615 684.847 126.282 684.294 124.794C683.68 123.143 682.883 121.898 681.902 121.057C680.928 120.201 679.835 119.703 678.623 119.564C677.418 119.409 676.163 119.559 674.856 120.012L666.38 122.953ZM670.518 109.515L677.04 127.055L683.562 144.594L675.773 147.297L669.251 129.757L662.728 112.218L670.518 109.515Z" fill="black"/>
<path d="M740.216 150.997L734.055 134.428L727.894 117.859L751.815 109.56L754.234 116.065L738.605 121.487L741.132 128.283L755.538 123.285L757.963 129.805L743.557 134.803L746.09 141.615L761.719 136.193L764.138 142.697L740.216 150.997Z" fill="black"/>
<path d="M827.117 110.767L818.741 113.673C818.32 112.881 817.813 112.211 817.218 111.662C816.623 111.113 815.952 110.701 815.206 110.424C814.46 110.147 813.65 110.02 812.776 110.043C811.909 110.051 811.007 110.218 810.069 110.544C808.405 111.121 807.116 112.012 806.203 113.218C805.301 114.42 804.803 115.878 804.708 117.591C804.625 119.301 804.977 121.213 805.763 123.327C806.582 125.527 807.591 127.26 808.793 128.523C810.001 129.773 811.338 130.569 812.802 130.914C814.274 131.244 815.825 131.126 817.456 130.56C818.371 130.242 819.161 129.84 819.825 129.354C820.5 128.864 821.042 128.305 821.451 127.676C821.868 127.032 822.144 126.333 822.28 125.58C822.423 124.812 822.418 124.003 822.267 123.155L830.661 120.297C831.061 121.815 831.157 123.413 830.95 125.093C830.753 126.768 830.237 128.415 829.401 130.032C828.561 131.639 827.354 133.105 825.779 134.431C824.216 135.753 822.256 136.823 819.899 137.64C816.795 138.717 813.769 139.024 810.823 138.561C807.884 138.082 805.234 136.822 802.873 134.779C800.512 132.736 798.656 129.897 797.304 126.262C795.948 122.616 795.519 119.275 796.017 116.241C796.515 113.206 797.748 110.604 799.715 108.436C801.683 106.268 804.191 104.655 807.24 103.597C809.317 102.876 811.342 102.49 813.315 102.439C815.284 102.377 817.137 102.647 818.875 103.25C820.608 103.843 822.18 104.765 823.591 106.017C825.002 107.268 826.177 108.852 827.117 110.767Z" fill="black"/>
<path d="M884.497 70.4239L876.121 73.3298C875.7 72.538 875.193 71.8677 874.598 71.319C874.003 70.7703 873.332 70.3575 872.586 70.0805C871.84 69.8035 871.03 69.6765 870.156 69.6996C869.29 69.7081 868.387 69.875 867.449 70.2005C865.785 70.7778 864.496 71.6694 863.583 72.8753C862.681 74.0773 862.183 75.5349 862.089 77.2482C862.006 78.9577 862.357 80.8695 863.143 82.9837C863.962 85.1843 864.972 86.9164 866.173 88.1803C867.381 89.4295 868.718 90.2263 870.182 90.5707C871.654 90.9004 873.205 90.7824 874.836 90.2168C875.751 89.8991 876.541 89.4971 877.205 89.011C877.88 88.521 878.422 87.9615 878.832 87.3324C879.248 86.6887 879.524 85.9901 879.66 85.2366C879.803 84.4684 879.799 83.6601 879.647 82.8115L888.041 79.9541C888.441 81.4715 888.537 83.07 888.33 84.7496C888.133 86.4253 887.617 88.0719 886.781 89.6893C885.941 91.296 884.734 92.7622 883.159 94.088C881.596 95.4099 879.636 96.4796 877.279 97.2971C874.175 98.3742 871.149 98.681 868.203 98.2174C865.264 97.7391 862.614 96.4786 860.253 94.4357C857.892 92.3928 856.036 89.5538 854.684 85.9187C853.328 82.2727 852.899 78.9324 853.397 75.8976C853.895 72.8629 855.128 70.2614 857.096 68.093C859.063 65.9246 861.571 64.3115 864.62 63.2538C866.697 62.5331 868.722 62.1472 870.695 62.0959C872.664 62.0339 874.517 62.3043 876.255 62.9073C877.988 63.4995 879.56 64.4215 880.971 65.6735C882.383 66.9254 883.558 68.5089 884.497 70.4239Z" fill="black"/>
<path d="M899.48 32.0913L907.755 29.2203L914.855 48.3131L915.14 48.2143L921.541 24.4372L928.677 21.9614L941 55.0987L932.708 57.9755L925.596 38.8504L925.378 38.9259L918.821 62.7934L911.802 65.2286L899.48 32.0913Z" fill="black"/>
<path d="M969.295 21.0362L977.57 18.1652L984.67 37.2579L984.955 37.1591L991.357 13.3821L998.493 10.9063L1010.82 44.0436L1002.52 46.9204L995.412 27.7953L995.194 27.8708L988.637 51.7383L981.618 54.1734L969.295 21.0362ZM983.996 5.9981L989.39 4.12672C990.133 6.15852 989.946 8.06243 988.829 9.83843C987.722 11.6106 985.829 12.9616 983.149 13.8915C980.469 14.8213 978.113 14.9446 976.081 14.2612C974.06 13.5739 972.678 12.2144 971.935 10.1826L977.279 8.32861C977.533 9.04442 978.024 9.60445 978.755 10.0087C979.485 10.413 980.464 10.402 981.693 9.97582C982.888 9.56125 983.636 8.979 983.937 8.22907C984.238 7.47914 984.258 6.73548 983.996 5.9981Z" fill="black"/>
</svg>
