<svg width="309" height="499" viewBox="0 0 309 499" fill="none" xmlns="http://www.w3.org/2000/svg">
<path d="M126.229 498.886C105.001 499.978 74.143 492.969 61.3673 489.328C61.3673 481.59 60.5811 457.103 57.4362 421.056C53.5052 375.996 47.6087 355.514 41.7123 324.109C38.9339 309.312 37.1261 301.352 34.833 299.531C34.1778 310.91 36.7985 329.025 32.8675 321.378C30.6307 317.027 24.0228 315.917 15.178 315.917C9.70972 317.269 6.33322 315.917 0.436792 324.109C-0.545957 311.82 0.43673 285.272 0.43677 265.395C0.436821 240.327 20.0918 218.97 41.7123 210.778C59.0087 204.224 72.5051 198.034 77.0912 195.758C84.2981 199.854 100.481 206.955 111.487 202.585C122.171 198.344 134.952 187.329 139.588 180.026C139.691 179.813 139.827 179.595 139.987 179.373C139.862 179.587 139.729 179.805 139.588 180.026C138.217 182.865 142.685 184.834 173.401 184.834C204.462 184.834 215.639 182.821 223.945 176.52C223.705 175.183 223.514 174.492 223.414 174.191C223.303 173.977 223.315 173.898 223.414 174.191C223.616 174.582 224.23 175.422 225.486 175.276C224.981 175.708 224.469 176.123 223.945 176.52C224.379 178.942 224.975 183.484 225.486 191.662C225.797 196.031 228.892 206.41 230.4 210.778C239.946 225.798 243.236 220.013 236.297 225.798C228.803 232.045 195.714 255.329 176.177 264.197C171.272 287.116 163.423 376.506 161.608 415.594V482.5C158.659 487.507 147.456 497.793 126.229 498.886Z" fill="url(#paint0_linear_1_5)"/>
<path d="M223.482 195.858C222.282 189.177 223.732 184.375 223.482 179.155C236.985 168.02 267.141 140.321 276.743 126.959C288.746 110.256 293.997 99.8171 295.497 90.4218C296.997 81.0265 296.247 79.9826 300.748 66.4116C305.249 52.8406 309.75 54.9284 305.999 66.4116C302.999 75.5981 311.25 73.719 307.5 79.9826L309 86.2461C306.75 98.0772 298.048 132.805 278.244 168.716C258.439 204.627 244.486 219.868 239.986 223C238.985 222.652 236.235 220.912 233.234 216.736C229.483 211.517 224.982 204.209 223.482 195.858Z" fill="url(#paint1_linear_1_5)"/>
<path d="M173.759 251.443C160.71 258.1 130.264 269.473 116.672 274.328L110 421L173.759 413.718C174.006 401.582 174.203 368.572 178.948 341.943C183.693 315.313 190.069 255.257 196 240C193.529 240.693 186.807 244.785 173.759 251.443Z" fill="#0007A4"/>
<path d="M19.0202 314.114C23.7157 315.051 27.4827 313.965 34.0742 320.433C34.8269 327.453 45.3647 345.707 51.3863 349.92C58.9132 355.185 75.4726 356.238 86.0104 352.026C94.4406 348.656 103.573 344.303 107.086 342.548C106.835 341.144 107.688 334.334 110.097 330.964C113.108 326.751 114.613 330.964 116.871 328.857C119.129 326.751 123.646 335.176 122.14 338.336C121.865 338.912 121.1 339.514 120.272 340.023C123.909 339.09 125.218 342.925 125.904 346.76C126.656 350.973 122.893 348.867 118.376 352.026C113.86 355.185 114.613 350.973 112.355 354.132C110.097 357.291 93.8082 369.702 80.7415 376.248C68.3516 382.455 43.2634 379.885 36.3323 376.248C30.3109 373.088 21.2783 369.929 12.2459 356.238C5.02003 345.286 1.20637 328.507 0.202769 322.539C-1.997 318.198 14.3248 313.177 19.0202 314.114Z" fill="url(#paint2_linear_1_5)"/>
<path d="M96.494 204.8C83.7422 203.956 77.2651 198.821 76 196.359L85.1084 139.662C84.5412 139.494 84.0034 139.386 83.5904 139.386H85.3089C85.3848 139.27 85.4387 139.17 85.4751 139.085C84.6597 138.737 85.8089 138.303 85.4751 139.085C85.847 139.244 86.6277 139.386 88.1446 139.386C93.6096 139.386 114.458 134.462 123.06 132L139 181.588C136.723 184.754 132.928 191.295 126.855 196.359C119.265 202.69 112.434 205.855 96.494 204.8Z" fill="url(#paint3_linear_1_5)"/>
<path d="M129.442 75.4191C127.041 71.3651 107.687 58.3901 107.687 34.0659C102.885 34.0659 83.1876 27.9058 78.0658 45.203C66.0617 45.203 70.8632 68.1758 67.6621 83.0405C64.4611 97.9053 73.7784 116.326 76.1793 127.137C78.5801 137.947 80.3296 138.027 85.9315 146.135C91.5335 154.243 114.078 147.905 119.68 142.5C125.282 137.094 117.188 144.912 121.19 140.858C125.191 136.804 127.691 132.374 131.692 122.915C135.693 113.455 136.494 111.393 131.692 96.5283C126.89 81.6635 131.842 79.4732 129.442 75.4191Z" fill="url(#paint4_linear_1_5)"/>
<path d="M123.214 7.06927C124.719 13.3915 124.719 19.7136 117.194 31.3043C109.669 42.895 98.3826 34.4654 84.8384 45.0024C80.3227 48.5155 77.8283 50.4425 76.5819 51.3935C77.8475 55.6533 80.785 66.1219 82.5811 74.5059C84.3869 82.9355 84.8384 93.4725 84.8384 97.6873C81.5778 92.0676 74.4546 82.514 72.0467 89.2577C69.0369 97.6873 73.5516 105.063 82.5811 111.385C91.6105 117.708 83.3336 117.708 87.8483 130.352C92.363 142.996 93.1155 142.996 87.8483 147.211C82.5811 151.426 80.3238 137.728 69.7894 130.352C59.255 122.976 41.1961 91.3651 45.7108 85.0429C50.2255 78.7207 44.9583 63.969 52.4829 60.8079C60.0074 57.6468 50.9781 42.895 63.7697 35.5191C76.5614 28.1432 68.2844 29.1969 76.5614 16.5525C84.8384 3.90817 97.6303 10.2304 102.145 7.06927C105.757 4.54039 107.161 3.62326 107.412 3.4808C119.541 -3.29883 121.739 0.873115 123.214 7.06927Z" fill="#533406"/>
<defs>
<linearGradient id="paint0_linear_1_5" x1="64.8202" y1="196.109" x2="230.216" y2="467.714" gradientUnits="userSpaceOnUse">
<stop stop-color="#00EDDF"/>
<stop offset="1" stop-color="#0009ED"/>
</linearGradient>
<linearGradient id="paint1_linear_1_5" x1="266" y1="57" x2="166.748" y2="195.852" gradientUnits="userSpaceOnUse">
<stop stop-color="#FFD0AE"/>
<stop offset="0.745" stop-color="#FEC59C"/>
<stop offset="0.915" stop-color="#FAA86D"/>
</linearGradient>
<linearGradient id="paint2_linear_1_5" x1="22.7839" y1="281.467" x2="145.865" y2="333.142" gradientUnits="userSpaceOnUse">
<stop stop-color="#FAA86D"/>
<stop offset="0.3" stop-color="#FFD0AE"/>
<stop offset="0.9999" stop-color="#FFD0AE"/>
<stop offset="1" stop-color="#FFD0AE" stop-opacity="0"/>
</linearGradient>
<linearGradient id="paint3_linear_1_5" x1="107.5" y1="132" x2="123.927" y2="200.853" gradientUnits="userSpaceOnUse">
<stop offset="0.61" stop-color="#FFD0AE"/>
<stop offset="1" stop-color="#FFA869"/>
</linearGradient>
<linearGradient id="paint4_linear_1_5" x1="104.597" y1="33.2008" x2="104.597" y2="150" gradientUnits="userSpaceOnUse">
<stop stop-color="#FFD0AE"/>
<stop offset="1" stop-color="#FFB57F"/>
</linearGradient>
</defs>
</svg>
